<?xml version="1.0" encoding="UTF-8"?><svg id="Layer_1" xmlns="http://www.w3.org/2000/svg" xmlns:xlink="http://www.w3.org/1999/xlink" viewBox="0 0 453.56 80.13"><defs><style>.cls-1{fill:url(#linear-gradient);}.cls-2{fill:#f58025;}</style><linearGradient id="linear-gradient" x1="8.8" y1="40.49" x2="46.88" y2="40.49" gradientUnits="userSpaceOnUse"><stop offset="0" stop-color="#f37820"/><stop offset=".11" stop-color="#f26d2c"/><stop offset=".31" stop-color="#f0514d"/><stop offset=".55" stop-color="#ed2b7b"/></linearGradient></defs><path class="cls-1" d="M10.59,40.49l22.14,22.14-.9.9-23.03-23.03,23.03-23.03.9.9-22.14,22.14ZM33.86,19.49l-21,21,21,21,.9-.9-20.1-20.1,20.1-20.1-.9-.9ZM36.8,22.42l-.9-.9-18.97,18.97,18.97,18.97.9-.9-18.07-18.07,18.07-18.07ZM38.83,24.46l-.9-.9-16.93,16.93,16.93,16.93.9-.9-16.04-16.04,16.04-16.04Z"/><polygon class="cls-2" points="31.83 17.46 40.28 9.01 71.76 40.49 40.28 71.97 31.83 63.53 54.87 40.49 31.83 17.46"/><path d="M235.48,35.6v-12.74h4.27c1.1,0,2.19.13,3.06.85.84.71,1.3,1.89,1.3,2.97,0,.98-.41,2.01-1.11,2.69-.85.84-1.91,1.04-3.06,1.04h-2.86v5.18h-1.6ZM239.77,29.1c.76,0,1.43-.07,2.02-.65.46-.46.71-1.11.71-1.76,0-.76-.28-1.52-.89-2.01-.54-.43-1.08-.48-1.73-.48h-2.8v4.9h2.69Z"/><path d="M247.61,26.17v2.21h.04c.45-1.28,1.24-2.47,2.77-2.47l.54.04v1.39h-.3c-1.11,0-1.89.54-2.43,1.49-.39.69-.46,1.28-.46,2.02v4.75h-1.45v-9.43h1.3Z"/><path d="M254.23,24.5h-1.6v-1.63h1.6v1.63ZM254.15,35.6h-1.45v-9.43h1.45v9.43Z"/><path d="M258.59,27.91h.04c.54-1.17,1.6-1.99,2.93-1.99,1.13,0,2.08.48,2.67,1.47.48.8.45,2.06.45,2.99v5.22h-1.45v-5.83c0-.56.02-1.26-.26-1.75-.32-.54-1-.85-1.62-.85-.76,0-1.45.35-1.95.95-.61.74-.74,1.6-.74,2.54v4.94h-1.45v-9.43h1.37v1.75Z"/><path d="M274.53,32.48c-.33,1.91-1.62,3.31-3.64,3.31-2.8,0-4.01-2.43-4.01-4.9s1.23-4.96,4.03-4.96c2.04,0,3.31,1.32,3.62,3.27l-1.34.24c-.13-1.24-.89-2.28-2.25-2.28-1.97,0-2.53,2.06-2.53,3.64s.46,3.75,2.43,3.75c1.41,0,2.1-1.02,2.34-2.3l1.34.24Z"/><path d="M284.47,33.02c-.56,1.73-2.21,2.77-4.01,2.77-2.86,0-4.33-2.27-4.33-4.9s1.54-4.96,4.36-4.96,4.2,2.45,4.12,5.07h-6.85c0,.74.04,1.43.39,2.14.45.89,1.43,1.43,2.41,1.43,1.23,0,2.12-.71,2.53-1.82l1.37.28ZM283.02,29.92c.02-1.56-.85-2.88-2.53-2.88-1.58,0-2.6,1.39-2.66,2.88h5.18Z"/><path d="M291.54,35.68l-1.39.11c-2.06,0-2.67-1.21-2.67-3.08v-5.46h-1.67v-1.15h1.67v-2.34l1.45-.15v2.49h2.1v1.15h-2.1v5.7c0,1.1.32,1.67,1.5,1.67l1.11-.09v1.15Z"/><path d="M297.08,25.93c2.77,0,4.14,2.41,4.14,4.9,0,2.64-1.52,4.96-4.38,4.96s-4.09-2.49-4.09-4.98c0-2.62,1.49-4.88,4.33-4.88ZM294.91,33.39c.41.72,1.21,1.19,2.06,1.19.97,0,1.73-.5,2.17-1.36.39-.74.46-1.6.46-2.41,0-.89-.11-1.82-.59-2.58-.45-.69-1.23-1.11-2.04-1.11-.91,0-1.73.52-2.14,1.34-.35.69-.46,1.6-.46,2.36,0,.85.13,1.84.54,2.58Z"/><path d="M304.94,27.91h.04c.54-1.17,1.6-1.99,2.93-1.99,1.13,0,2.08.48,2.67,1.47.48.8.45,2.06.45,2.99v5.22h-1.45v-5.83c0-.56.02-1.26-.26-1.75-.32-.54-1-.85-1.62-.85-.76,0-1.45.35-1.95.95-.61.74-.74,1.6-.74,2.54v4.94h-1.45v-9.43h1.37v1.75Z"/><path d="M327.68,35.6h-7.52v-12.74h1.6v11.33h5.92v1.41Z"/><path d="M335.46,29.75v-.41c0-1.65-.72-2.28-2.4-2.28-1.19,0-2.32.37-2.58,1.67l-1.36-.22c.26-1.97,2.34-2.58,4.07-2.58,1.02,0,2.19.11,2.9.93.78.84.78,2.02.78,3.1v3.66c0,.69.02,1.37.2,1.99h-1.45l-.17-1.76c-.67,1.36-1.8,1.95-3.31,1.95-1.76,0-3.29-.98-3.29-2.86,0-1.13.71-2.15,1.75-2.62,1.06-.5,2.45-.56,3.62-.56h1.23ZM335.46,30.85h-1.21c-1.49,0-3.83.2-3.83,2.15,0,1.17,1,1.65,2.04,1.65,1.78,0,2.99-1.52,2.99-3.19v-.61Z"/><path d="M340.33,35.6h-.71v-12.74h1.45v4.87h.07c.59-1.11,1.43-1.8,2.77-1.8,1.15,0,2.27.61,2.9,1.54.63.93.89,2.19.89,3.29,0,2.4-1.15,5.03-3.94,5.03-1.24,0-2.32-.74-2.9-1.8l-.54,1.62ZM343.65,27.1c-1.49,0-2.58,1.5-2.58,3.08v1.13c0,.97.17,1.67.54,2.23.45.65,1.24,1.08,2.04,1.08,1.93,0,2.49-2.06,2.49-3.62s-.48-3.9-2.49-3.9Z"/><path d="M353.89,25.93c2.77,0,4.14,2.41,4.14,4.9,0,2.64-1.52,4.96-4.38,4.96s-4.09-2.49-4.09-4.98c0-2.62,1.49-4.88,4.33-4.88ZM351.72,33.39c.41.72,1.21,1.19,2.06,1.19.97,0,1.73-.5,2.17-1.36.39-.74.46-1.6.46-2.41,0-.89-.11-1.82-.59-2.58-.45-.69-1.23-1.11-2.04-1.11-.91,0-1.73.52-2.14,1.34-.35.69-.46,1.6-.46,2.36,0,.85.13,1.84.54,2.58Z"/><path d="M361.73,26.17v2.21h.04c.45-1.28,1.24-2.47,2.77-2.47l.54.04v1.39h-.3c-1.11,0-1.89.54-2.43,1.49-.39.69-.46,1.28-.46,2.02v4.75h-1.45v-9.43h1.3Z"/><path d="M372.61,29.75v-.41c0-1.65-.72-2.28-2.4-2.28-1.19,0-2.32.37-2.58,1.67l-1.36-.22c.26-1.97,2.34-2.58,4.07-2.58,1.02,0,2.19.11,2.9.93.78.84.78,2.02.78,3.1v3.66c0,.69.02,1.37.2,1.99h-1.45l-.17-1.76c-.67,1.36-1.8,1.95-3.31,1.95-1.76,0-3.29-.98-3.29-2.86,0-1.13.71-2.15,1.75-2.62,1.06-.5,2.45-.56,3.62-.56h1.23ZM372.61,30.85h-1.21c-1.49,0-3.83.2-3.83,2.15,0,1.17,1,1.65,2.04,1.65,1.78,0,2.99-1.52,2.99-3.19v-.61Z"/><path d="M381.42,35.68l-1.39.11c-2.06,0-2.67-1.21-2.67-3.08v-5.46h-1.67v-1.15h1.67v-2.34l1.45-.15v2.49h2.1v1.15h-2.1v5.7c0,1.1.32,1.67,1.5,1.67l1.11-.09v1.15Z"/><path d="M386.95,25.93c2.77,0,4.14,2.41,4.14,4.9,0,2.64-1.52,4.96-4.38,4.96s-4.09-2.49-4.09-4.98c0-2.62,1.49-4.88,4.33-4.88ZM384.78,33.39c.41.72,1.21,1.19,2.06,1.19.97,0,1.73-.5,2.17-1.36.39-.74.46-1.6.46-2.41,0-.89-.11-1.82-.59-2.58-.45-.69-1.23-1.11-2.04-1.11-.91,0-1.73.52-2.14,1.34-.35.69-.46,1.6-.46,2.36,0,.85.13,1.84.54,2.58Z"/><path d="M394.79,26.17v2.21h.04c.45-1.28,1.24-2.47,2.77-2.47l.54.04v1.39h-.3c-1.11,0-1.89.54-2.43,1.49-.39.69-.46,1.28-.46,2.02v4.75h-1.45v-9.43h1.3Z"/><path d="M403.5,36.49c-.26.69-.46,1.21-.97,1.75-.58.61-1.08.72-1.91.72-.37,0-.72-.07-1.08-.17v-1.17c.32.07.65.13.97.13,1.47,0,1.73-1.21,2.12-2.32l-3.27-9.27h1.5l2.53,7.09,2.58-7.09h1.23l-3.7,10.33Z"/><path d="M240.83,46.78h-2.23l-1.34,8.08h-1.41l1.34-8.08h-1.71l.19-1.11h1.71c.32-1.93,1.1-3.47,3.75-3.47.35,0,.59.02.85.06l-.18,1.11c-.32-.02-.46-.04-.67-.04-1.26,0-2.12.52-2.34,2.34h2.23l-.19,1.11Z"/><path d="M245.24,55.14c-2.56,0-3.7-2.08-3.7-4.23,0-2.49,1.63-5.44,4.64-5.44,2.06,0,3.66,1.43,3.66,4.27,0,2.41-1.62,5.4-4.61,5.4ZM247.89,47.45c-.37-.5-1.02-.87-1.8-.87-2.47,0-3.03,3.31-3.03,4.64,0,.39,0,2.79,2.25,2.79,2.43,0,3.03-3.18,3.03-4.75,0-.85-.17-1.41-.45-1.8Z"/><path d="M251.55,54.86l1.54-9.19h1.41l-.45,2.4c1.19-2.17,2.14-2.69,3.75-2.66l-.24,1.47c-.89-.04-1.84-.04-2.84,1.45-.74,1.1-1.04,2.21-1.41,4.48l-.35,2.06h-1.41Z"/><path d="M275.16,54.86h-3.21l-.78-2.62h-4.12l-.8,2.62h-2.62l4.09-12.74h3.45l3.99,12.74ZM270.48,49.9l-1.36-4.48-1.36,4.48h2.71Z"/><path d="M279.42,45.42v1.76h.04c.28-1,.84-2.04,2.02-1.95l.46.04v2.73c-2.08-.11-2.34,1.58-2.34,3.25v3.6h-2.73v-9.43h2.54Z"/><path d="M289.78,47.58h-2.02v3.75c0,1.24.09,1.52,1.26,1.52.24,0,.59-.04.91-.07v2.06c-.54.13-1.21.2-1.71.2-.78,0-1.82-.11-2.43-.61-.76-.63-.76-1.76-.76-2.69v-4.16h-1.54v-2.17h1.65l.24-2.77,2.38-.19v2.95h2.02v2.17Z"/><path d="M294.57,44.57h-2.73v-2.64h2.73v2.64ZM294.57,54.86h-2.73v-9.43h2.73v9.43Z"/><path d="M301.95,44.14c-.41-.06-.61-.06-1.04-.06-.87,0-.87.58-.87,1.37v.2h1.67v2.12h-1.67v7.08h-2.73v-7.08h-1.1v-2.12h1.1c0-.82-.04-1.8.43-2.51.58-.85,1.65-1.24,2.66-1.24.22,0,.98.02,1.56.13v2.1ZM305.53,44.72h-2.73v-2.79h2.73v2.79ZM305.53,54.86h-2.73v-9.43h2.73v9.43Z"/><path d="M313.56,49.01c0-.85-.45-1.69-1.43-1.69-1.5,0-1.69,1.49-1.69,2.69s.02,2.79,1.58,2.79c.97,0,1.45-.76,1.54-1.63l2.6.15c-.22,2.34-1.99,3.73-4.29,3.73-2.86,0-4.55-2.02-4.55-4.81s1.75-5,4.72-5c2.19,0,3.94,1.41,4.12,3.62l-2.6.15Z"/><path d="M320.95,44.57h-2.73v-2.64h2.73v2.64ZM320.95,54.86h-2.73v-9.43h2.73v9.43Z"/><path d="M329.07,54.86c-.11-.48-.15-.98-.13-1.47-.78,1.11-1.6,1.65-3.01,1.65-1.67,0-2.97-.89-2.97-2.67,0-1.39.87-2.34,2.12-2.8,1.08-.41,2.58-.48,3.73-.59v-.22c0-.41.04-.89-.24-1.24-.24-.32-.71-.45-1.11-.45-.87,0-1.63.45-1.63,1.37l-2.58-.24c.28-2.28,2.51-2.95,4.5-2.95.97,0,2.23.22,2.99.85.97.78.87,1.82.87,2.95v4.4c0,.48.04.95.19,1.41h-2.71ZM328.81,50.34c-1.04.11-2.95.35-2.95,1.73,0,.74.45,1.24,1.21,1.24.56,0,1.06-.3,1.37-.78.39-.59.37-1.15.37-1.82v-.37Z"/><path d="M333.82,42.12h2.73v12.74h-2.73v-12.74Z"/><path d="M348.13,54.86h-2.97v-12.74h2.97v12.74Z"/><path d="M350.82,45.42h2.58v1.6h.04c.56-1.21,1.34-1.78,2.71-1.78.89,0,1.76.28,2.32,1.04.52.71.52,1.89.52,2.75v5.83h-2.73v-5.07c0-.97.13-2.38-1.24-2.38-.48,0-.93.28-1.15.71-.28.54-.32,1.08-.32,1.67v5.07h-2.73v-9.43Z"/><path d="M366.68,47.58h-2.02v3.75c0,1.24.09,1.52,1.26,1.52.24,0,.59-.04.91-.07v2.06c-.54.13-1.21.2-1.71.2-.78,0-1.82-.11-2.43-.61-.76-.63-.76-1.76-.76-2.69v-4.16h-1.54v-2.17h1.65l.24-2.77,2.38-.19v2.95h2.02v2.17Z"/><path d="M371.14,50.6l-.02.46c0,1.11.63,2.02,1.82,2.02.84,0,1.67-.61,1.67-1.49l2.53.19c0,.46-1.1,3.25-4.29,3.25-2.82,0-4.66-1.97-4.66-4.77s1.65-5.03,4.59-5.03c1.32,0,2.67.59,3.45,1.67.78,1.08.98,2.41.97,3.7h-6.06ZM374.47,48.99c-.06-1.02-.39-1.97-1.58-1.97s-1.67.89-1.76,1.97h3.34Z"/><path d="M379.15,42.12h2.73v12.74h-2.73v-12.74Z"/><path d="M384.35,42.12h2.73v12.74h-2.73v-12.74Z"/><path d="M392.28,44.57h-2.73v-2.64h2.73v2.64ZM392.28,54.86h-2.73v-9.43h2.73v9.43Z"/><path d="M398.8,45.24c.85,0,1.69.13,2.51.41.19-1.43.72-1.84,2.14-1.84.26,0,.5.02.76.07v1.76c-.24-.04-.48-.09-.72-.09-.52,0-1.02.24-1.1.82.52.58.74,1.04.74,1.84,0,2.23-2.4,2.88-4.2,2.88-.52,0-1.1-.06-1.58-.13-.26.15-.46.37-.46.69,0,.39.19.61.54.72.48.13,1.49.17,2.02.19l1.19.06c1.65.09,3.51.45,3.51,2.51,0,1.26-.91,2.12-1.99,2.56-1.02.43-2.36.5-3.47.5-1.5,0-4.87-.06-4.87-2.19,0-.97.78-1.52,1.63-1.71-.72-.35-1.21-.85-1.21-1.69,0-1.17.95-1.71,1.89-2.1-1.02-.39-1.67-1.17-1.67-2.3,0-2.28,2.49-2.95,4.33-2.95ZM400.55,54.95c-.65-.06-2.45-.06-3.7-.15-.33.13-.59.39-.59.76,0,.45.3.65.69.76.59.17,1.45.19,2.04.19.67,0,2.56.06,2.56-.91,0-.5-.61-.61-1-.65ZM397.26,48.15c0,.93.59,1.43,1.5,1.43s1.63-.48,1.63-1.45-.78-1.39-1.63-1.39-1.5.52-1.5,1.41Z"/><path d="M407.92,50.6l-.02.46c0,1.11.63,2.02,1.82,2.02.84,0,1.67-.61,1.67-1.49l2.53.19c0,.46-1.1,3.25-4.29,3.25-2.82,0-4.66-1.97-4.66-4.77s1.65-5.03,4.59-5.03c1.32,0,2.67.59,3.45,1.67.78,1.08.98,2.41.97,3.7h-6.05ZM411.25,48.99c-.06-1.02-.39-1.97-1.58-1.97s-1.67.89-1.76,1.97h3.34Z"/><path d="M415.84,45.42h2.58v1.6h.04c.56-1.21,1.34-1.78,2.71-1.78.89,0,1.76.28,2.32,1.04.52.71.52,1.89.52,2.75v5.83h-2.73v-5.07c0-.97.13-2.38-1.24-2.38-.48,0-.93.28-1.15.71-.28.54-.32,1.08-.32,1.67v5.07h-2.73v-9.43Z"/><path d="M432.07,49.01c0-.85-.45-1.69-1.43-1.69-1.5,0-1.69,1.49-1.69,2.69s.02,2.79,1.58,2.79c.97,0,1.45-.76,1.54-1.63l2.6.15c-.22,2.34-1.99,3.73-4.29,3.73-2.86,0-4.55-2.02-4.55-4.81s1.75-5,4.72-5c2.19,0,3.94,1.41,4.12,3.62l-2.6.15Z"/><path d="M439.13,50.6l-.02.46c0,1.11.63,2.02,1.82,2.02.84,0,1.67-.61,1.67-1.49l2.53.19c0,.46-1.1,3.25-4.29,3.25-2.82,0-4.66-1.97-4.66-4.77s1.65-5.03,4.59-5.03c1.32,0,2.67.59,3.45,1.67.78,1.08.98,2.41.97,3.7h-6.06ZM442.46,48.99c-.06-1.02-.39-1.97-1.58-1.97s-1.67.89-1.76,1.97h3.34Z"/><path d="M92.43,47.5l-2.48,7.33h-6.74l10.77-31.73h8.62l11.24,31.73h-7.21l-2.61-7.33h-11.59ZM102.55,41.87c-2.25-6.7-3.69-10.97-4.45-13.83h-.05c-.78,3.13-2.37,8.11-4.17,13.83h8.67Z"/><path d="M124.77,23.1v31.73h-6.86v-31.73h6.86Z"/><path d="M142.28,22.81h4.25v28.38h16.7l-.59,3.64h-20.36V22.81Z"/><path d="M172.92,45.22l-3.44,9.6h-4.23l11.4-32.02h5.23l11.89,32.02h-4.52l-3.55-9.6h-12.78ZM184.61,41.58c-3.05-8.41-4.73-12.89-5.42-15.33h-.05c-.78,2.72-2.66,8.13-5.12,15.33h10.59Z"/><path d="M196.53,22.81h12.29c6.77,0,9.92,3.56,9.92,8,0,3.72-2.14,6.14-4.6,6.98,2.24.71,5.65,2.96,5.65,7.67,0,6.04-4.6,9.38-10.67,9.38h-12.59V22.81ZM208,36.12c4.64,0,6.45-1.83,6.45-4.95,0-2.83-2.03-4.86-5.79-4.86h-7.97v9.81h7.31ZM200.69,51.32h7.91c4.02,0,6.82-1.89,6.82-5.88,0-3.48-2.23-5.81-7.63-5.81h-7.09v11.69Z"/></svg>